<svg xmlns="http://www.w3.org/2000/svg" xmlns:xlink="http://www.w3.org/1999/xlink" width="500" zoomAndPan="magnify" viewBox="0 0 375 374.999991" height="500" preserveAspectRatio="xMidYMid meet" version="1.0"><defs><clipPath id="c6f311ec60"><path d="M 6.972656 6.972656 L 368.027344 6.972656 L 368.027344 368.027344 L 6.972656 368.027344 Z M 6.972656 6.972656 " clip-rule="nonzero"/></clipPath><clipPath id="38e6b6d545"><path d="M 187.5 6.972656 C 87.796875 6.972656 6.972656 87.796875 6.972656 187.5 C 6.972656 287.203125 87.796875 368.027344 187.5 368.027344 C 287.203125 368.027344 368.027344 287.203125 368.027344 187.5 C 368.027344 87.796875 287.203125 6.972656 187.5 6.972656 Z M 187.5 6.972656 " clip-rule="nonzero"/></clipPath><clipPath id="a835a40801"><path d="M 187.5 0 C 83.945312 0 0 83.945312 0 187.5 C 0 291.054688 83.945312 375 187.5 375 C 291.054688 375 375 291.054688 375 187.5 C 375 83.945312 291.054688 0 187.5 0 Z M 187.5 0 " clip-rule="nonzero"/></clipPath><clipPath id="fe9cd6eea8"><path d="M 52 52 L 323 52 L 323 323 L 52 323 Z M 52 52 " clip-rule="nonzero"/></clipPath><clipPath id="e4641fad23"><path d="M 86.601562 52.886719 L 322.238281 288.519531 L 288.519531 322.238281 L 52.882812 86.605469 Z M 86.601562 52.886719 " clip-rule="nonzero"/></clipPath><clipPath id="8b0267ed2c"><path d="M 86.601562 52.886719 L 322.113281 288.398438 L 288.394531 322.113281 L 52.882812 86.605469 Z M 86.601562 52.886719 " clip-rule="nonzero"/></clipPath></defs><g clip-path="url(#c6f311ec60)"><g clip-path="url(#38e6b6d545)"><path fill="#ffffff" d="M 6.972656 6.972656 L 368.027344 6.972656 L 368.027344 368.027344 L 6.972656 368.027344 Z M 6.972656 6.972656 " fill-opacity="1" fill-rule="nonzero"/></g></g><path fill="#19171a" d="M 220.226562 96.042969 C 226 95.8125 229.667969 98.453125 231.238281 103.964844 C 231.117188 127.308594 230.953125 150.652344 230.742188 173.996094 C 233.464844 152.878906 236.1875 131.761719 238.910156 110.644531 C 240.765625 105.160156 244.515625 103.140625 250.167969 104.582031 C 253.125 105.804688 254.898438 107.992188 255.488281 111.140625 C 254.945312 134.644531 254.449219 158.15625 254.003906 181.667969 C 257.761719 165.734375 261.554688 149.8125 265.390625 133.90625 C 268.464844 129.972656 272.21875 129.1875 276.648438 131.554688 C 279.339844 133.6875 280.371094 136.449219 279.742188 139.847656 C 276.613281 155.558594 274.386719 171.394531 273.058594 187.359375 C 271.90625 207.554688 271.246094 227.765625 271.082031 247.988281 C 270.691406 250.425781 270.113281 252.820312 269.347656 255.164062 C 267.980469 258.644531 266.414062 262.023438 264.644531 265.308594 C 259.433594 271.019531 253.367188 275.597656 246.457031 279.042969 C 244.066406 279.839844 241.757812 280.832031 239.527344 282.015625 C 236.777344 283.070312 233.972656 283.976562 231.113281 284.734375 C 227.398438 285.09375 223.644531 285.382812 219.855469 285.601562 C 207.835938 285.664062 197.152344 281.996094 187.808594 274.589844 C 184.46875 271.535156 181.664062 268.070312 179.394531 264.195312 C 156.355469 262.050781 137.585938 269.925781 123.097656 287.828125 C 115.800781 297.75 111.675781 308.886719 110.722656 321.238281 C 78.152344 302.558594 56.5 275.175781 45.765625 239.078125 C 48.585938 237.75 51.472656 236.554688 54.425781 235.492188 C 59.355469 233.847656 64.304688 232.277344 69.273438 230.789062 C 66.207031 220.046875 63.195312 209.285156 60.242188 198.496094 C 59.039062 198.019531 57.761719 197.855469 56.40625 198 C 55.679688 184.652344 60.546875 173.886719 71.003906 165.707031 C 80.871094 158.851562 91.34375 157.777344 102.433594 162.488281 C 107.730469 165.308594 111.894531 169.308594 114.929688 174.492188 C 118.917969 181.285156 120.773438 188.628906 120.5 196.515625 C 119.589844 196.515625 118.683594 196.515625 117.777344 196.515625 C 116.890625 207.582031 115.902344 218.632812 114.808594 229.675781 C 127.957031 227.84375 140.910156 225.082031 153.660156 221.386719 C 146.390625 214.699219 138.265625 209.292969 129.285156 205.175781 C 128.746094 204.421875 128.582031 203.597656 128.789062 202.703125 C 131.007812 196.828125 135.175781 193.15625 141.285156 191.691406 C 144.230469 191.355469 147.117188 191.601562 149.945312 192.433594 C 153.074219 193.996094 156.042969 195.808594 158.855469 197.875 C 162.648438 201.339844 166.445312 204.804688 170.238281 208.269531 C 171.257812 208.996094 172.371094 209.53125 173.578125 209.878906 C 174.785156 205.246094 176.023438 200.625 177.292969 196.019531 C 177.800781 193.5625 178.210938 191.085938 178.527344 188.597656 C 180.984375 164.921875 183.460938 141.246094 185.953125 117.574219 C 187.089844 112.726562 190.144531 110.085938 195.109375 109.65625 C 199.753906 109.996094 202.726562 112.386719 204.019531 116.832031 C 204.492188 136.542969 204.90625 156.257812 205.253906 175.976562 C 207.550781 151.804688 209.859375 127.636719 212.183594 103.46875 C 213.421875 99.386719 216.101562 96.910156 220.226562 96.042969 Z M 76.945312 196.761719 C 87.585938 196.679688 98.226562 196.761719 108.867188 197.011719 C 106.042969 198.527344 103.195312 200.011719 100.332031 201.464844 C 100.207031 206.496094 100.164062 211.527344 100.207031 216.558594 C 97.730469 216.558594 95.257812 216.558594 92.78125 216.558594 C 93.625 211.597656 94.535156 206.648438 95.503906 201.710938 C 89.363281 200.433594 83.179688 199.363281 76.945312 198.496094 C 76.945312 197.917969 76.945312 197.339844 76.945312 196.761719 Z M 94.019531 220.519531 C 100.414062 219.828125 104.453125 222.546875 106.144531 228.6875 C 105.667969 228.886719 105.175781 229.007812 104.660156 229.058594 C 98.390625 229.441406 92.121094 229.8125 85.855469 230.171875 C 86.34375 225.0625 89.0625 221.847656 94.019531 220.519531 Z M 161.824219 229.921875 C 167.632812 236.417969 171.921875 243.839844 174.691406 252.195312 C 153.800781 252.703125 136.433594 260.707031 122.601562 276.199219 C 120.582031 278.75 118.6875 281.390625 116.910156 284.117188 C 116.746094 283.621094 116.746094 283.128906 116.910156 282.632812 C 120.398438 270.246094 122.132812 257.625 122.105469 244.769531 C 121.410156 242.507812 120.296875 240.484375 118.765625 238.707031 C 133.25 236.265625 147.605469 233.335938 161.824219 229.921875 Z M 161.824219 229.921875 " fill-opacity="1" fill-rule="evenodd"/><g clip-path="url(#a835a40801)"><path stroke-linecap="butt" transform="matrix(0.75, 0, 0, 0.75, 0.0000045, 0)" fill="none" stroke-linejoin="miter" d="M 249.999994 0 C 111.927078 0 -0.000006 111.927084 -0.000006 250 C -0.000006 388.072917 111.927078 500.000001 249.999994 500.000001 C 388.072911 500.000001 499.999995 388.072917 499.999995 250 C 499.999995 111.927084 388.072911 0 249.999994 0 Z M 249.999994 0 " stroke="#cb1200" stroke-width="100" stroke-opacity="1" stroke-miterlimit="4"/></g><g clip-path="url(#fe9cd6eea8)"><g clip-path="url(#e4641fad23)"><g clip-path="url(#8b0267ed2c)"><path fill="#cb1200" d="M 86.601562 52.886719 L 322.105469 288.390625 L 288.386719 322.109375 L 52.882812 86.605469 Z M 86.601562 52.886719 " fill-opacity="1" fill-rule="nonzero"/></g></g></g></svg>