<?xml version="1.0" encoding="UTF-8"?>
<svg id="Capa_1" data-name="Capa 1" xmlns="http://www.w3.org/2000/svg" viewBox="0 0 186.92 58.34">
  <defs>
    <style>
      .cls-1 {
        fill: #0c6dff;
      }

      .cls-2 {
        fill: #001391;
      }
    </style>
  </defs>
  <g>
    <path class="cls-2" d="M154.02,27.85l-10.12,19.27c-.22.42-.84.42-1.06,0l-10.13-19.27c-.1-.19-.3-.31-.52-.31h-4.9c-.33,0-.55.35-.39.65l15.94,29.84c.22.41.81.41,1.04,0l15.94-29.84c.16-.29-.05-.65-.39-.65h-4.9c-.22,0-.42.12-.52.31"/>
    <path class="cls-2" d="M159.76,53.56l10.12-19.27c.22-.42.84-.42,1.06,0l10.13,19.27c.1.19.3.31.52.31h4.89c.33,0,.55-.35.39-.65l-15.94-29.84c-.22-.41-.81-.41-1.03,0l-15.94,29.84c-.16.29.06.65.39.65h4.9c.22,0,.42-.12.52-.31"/>
    <path class="cls-2" d="M90.61,41.75c2.11-1.06,3.43-3.34,3.43-6.16,0-4.8-3.74-8.05-9.02-8.05h-15.17c-.33,0-.59.26-.59.59v29.62c0,.33.26.59.59.59h14.5c7.26,0,11.09-3.12,11.09-9.24s-4.83-7.35-4.83-7.35M74.94,31.99h9c3.32,0,5,1.42,5,4.03s-1.68,4.03-5,4.03h-9c-.32,0-.59-.26-.59-.59v-6.89c0-.32.26-.59.59-.59M84.06,53.87h-9.12c-.32,0-.58-.26-.58-.59v-8.18c0-.33.26-.59.58-.59h9.12c4.35,0,6.29,1.23,6.29,4.68s-1.9,4.68-6.29,4.68"/>
    <path class="cls-2" d="M121.73,41.75c2.11-1.06,3.43-3.34,3.43-6.16,0-4.8-3.74-8.05-9.02-8.05h-15.17c-.33,0-.59.26-.59.59v29.62c0,.33.26.59.59.59h14.5c7.26,0,11.09-3.12,11.09-9.24s-4.83-7.35-4.83-7.35M106.06,31.99h9c3.32,0,5,1.42,5,4.03s-1.68,4.03-5,4.03h-9c-.32,0-.59-.26-.59-.59v-6.89c0-.32.26-.59.59-.59M115.18,53.87h-9.12c-.32,0-.58-.26-.58-.59v-8.18c0-.33.26-.59.58-.59h9.12c4.35,0,6.29,1.23,6.29,4.68s-1.9,4.68-6.29,4.68"/>
  </g>
  <g>
    <path class="cls-1" d="M0,18.36V.31s11.19,0,11.19,0v2.83H3s0,4.83,0,4.83h6.03s.43,2.71.43,2.71H3s0,7.69,0,7.69H0Z"/>
    <path class="cls-1" d="M13.5,14.85V5.43s2.95,0,2.95,0v8.61c0,1.37.55,2.05,1.92,2.05,1.27,0,2.35-.68,3.46-1.71V5.43s2.95,0,2.95,0v12.93s-2.71,0-2.71,0l-.24-1.81c-.94,1.02-2.47,2.07-4.56,2.07-2.33,0-3.77-1.22-3.77-3.78Z"/>
    <path class="cls-1" d="M28.1,18.37V5.43s2.71,0,2.71,0l.24,1.83c.94-1.07,2.47-2.1,4.59-2.1,2.31,0,3.75,1.22,3.75,3.78v9.42s-2.93,0-2.93,0v-8.54c0-1.44-.58-2.17-1.95-2.17-1.27,0-2.35.66-3.46,1.68v9.03s-2.95,0-2.95,0Z"/>
    <path class="cls-1" d="M41.88,11.97c0-4.49,2.16-6.81,5.09-6.81,1.73,0,3.12.61,4.01,1.73V.53s2.95-.44,2.95-.44v18.27s-2.71,0-2.71,0l-.24-1.71c-.86,1.1-2.16,1.9-4.06,1.9-2.91,0-5.04-2.1-5.04-6.59ZM50.98,14.49v-5.27c-1.03-1.02-1.92-1.56-3.15-1.56-1.8,0-3,1.39-3,4.29,0,2.66,1.15,4.15,3.05,4.15,1.23,0,2.21-.68,3.1-1.61Z"/>
    <path class="cls-1" d="M56.43,15.17c0-2.85,2.35-4.61,8.31-5.29v-.39c0-1.2-.7-1.85-2.21-1.85-1.66,0-2.93.73-4.11,1.73l-1.61-1.83c1.34-1.27,3.17-2.37,6.1-2.37,3.29,0,4.71,1.66,4.71,4.69v8.52s-2.64,0-2.64,0l-.24-1.66c-1.22,1.27-2.79,1.85-4.68,1.85-2.09,0-3.63-1.27-3.63-3.39ZM64.74,14.76v-2.85c-4.11.59-5.43,1.49-5.43,2.78,0,1.02.7,1.56,1.8,1.56,1.51,0,2.71-.56,3.63-1.49Z"/>
    <path class="cls-1" d="M70.09,11.9c0-4.95,3.29-6.73,6.12-6.73,2.31,0,4.18,1.15,5.16,3.27l-2.19,1.42c-.65-1.49-1.51-2.2-2.98-2.2-1.73,0-3.17,1.32-3.17,4.27,0,2.59,1.13,4.29,3.17,4.29,1.49,0,2.45-.85,3.17-2.42l2.19,1.39c-1.15,2.39-3.15,3.44-5.52,3.44-2.95,0-5.96-2-5.96-6.73Z"/>
    <path class="cls-1" d="M83.81,1.93c0-.9.6-1.59,1.68-1.59s1.73.68,1.73,1.59-.62,1.59-1.73,1.59-1.68-.68-1.68-1.59ZM84.05,18.37V5.44s2.93,0,2.93,0v12.93s-2.93,0-2.93,0Z"/>
    <path class="cls-1" d="M89.71,11.91c0-4.76,3.1-6.73,6.22-6.73,3.1,0,6.2,1.98,6.2,6.73,0,4.73-3.1,6.73-6.2,6.73-3.1,0-6.22-2-6.22-6.73ZM99.2,11.93c0-2.39-1.03-4.2-3.27-4.2s-3.27,1.63-3.27,4.2c0,2.46.99,4.2,3.27,4.2,2.14,0,3.27-1.73,3.27-4.2ZM96.68,0h3.19s-3.48,4.05-3.48,4.05h-1.95l2.23-4.05Z"/>
    <path class="cls-1" d="M104.75,18.37V5.44s2.71,0,2.71,0l.24,1.83c.94-1.07,2.47-2.1,4.59-2.1,2.31,0,3.75,1.22,3.75,3.78v9.42s-2.93,0-2.93,0v-8.54c0-1.44-.58-2.17-1.95-2.17-1.27,0-2.35.66-3.46,1.68v9.03s-2.95,0-2.95,0Z"/>
  </g>
</svg>