<?xml version="1.0" encoding="UTF-8"?><svg id="b" xmlns="http://www.w3.org/2000/svg" viewBox="0 0 1013.61 576.92"><defs><style>.d,.e{fill:#af9a69;}.e{opacity:0;}</style></defs><g id="c"><rect class="e" width="1013.61" height="576.92"/><path class="d" d="m174.41,189.8c-8.65.44-16.54,2.15-23.54,3.85-2.15.52-4.16,1.06-6.11,1.58-7.94,2.12-14.8,3.95-27.56,3.95-25.49,0-43.99-18.24-43.99-43.36,0-11.92,4.36-22.9,12.28-30.92,8.06-8.17,19.32-12.66,31.71-12.66,14.9,0,23.32,3.45,32.2,13.17,9.48,10.38,19.77,20.82,33.04,27.12.37.18.82-.04.91-.44,1.02-4.26,1.97-8.51,2.71-12.67.05-.28-.08-.55-.33-.68-9.98-5.46-18.36-14.05-26.17-22.61-11.45-12.54-23.73-17.66-42.37-17.66-16.09,0-30.83,5.95-41.5,16.76-10.48,10.61-16.26,25.03-16.26,40.6s6.07,30.97,17.1,41.46c10.62,10.1,25.06,15.67,40.66,15.67,14.57,0,22.98-2.24,31.11-4.41,1.87-.5,3.81-1.02,5.8-1.5,6.01-1.46,12.72-2.93,19.86-3.41.35-.02.62-.32.6-.68-.05-.92-.07-1.85-.07-2.77,0-3.16.22-6.39.59-9.65.05-.4-.28-.75-.68-.73Z"/><path class="d" d="m178.1,171.91c-4.55-3.62-8.94-7.37-12.94-11.21-13.39-12.86-20.13-24.35-20.57-35.06,0-.17-.08-.33-.2-.44-3.85-3.71-7.7-6.15-12.31-7.63-.38-.12-.78.13-.84.53-.29,2.01-.45,4.14-.45,6.41,0,23.99,21.09,44.9,43.83,62.16.39.3.96.07,1.03-.42.68-4.53,1.62-9.1,2.67-13.68.06-.24-.03-.5-.23-.65Z"/><path class="d" d="m280.29,160.39c-10.74-11.47-25.54-17.53-42.8-17.53-5.98,0-10.6.45-15.07.88-4.49.43-8.73.84-14.44.84-.44,0-.87,0-1.3-.02-.32,0-.59.21-.65.52-.79,4.12-1.72,8.23-2.71,12.32-.09.39.18.77.58.8,1.35.09,2.71.14,4.08.14,6.38,0,11.15-.46,15.76-.91,4.33-.42,8.43-.81,13.75-.81,13.35,0,24.68,4.56,32.75,13.18,7.44,7.94,11.53,18.73,11.53,30.38,0,14.31-7.91,34.34-28.62,41.12-6.28-14.38-15.4-27.18-34.91-40.87-3.24-2.28-6.77-4.68-10.5-7.22-3.24-2.21-6.68-4.55-10.21-7-.39-.27-.94-.05-1.02.42-.83,4.76-1.35,9.3-1.35,13.54,0,1.77.13,3.54.38,5.31.04.25.21.45.45.52,6.47,1.97,13.24,5.21,20.43,10.22,11.58,9.16,18,17.79,22.65,27.4,0,0,0,0,0,0-.53.01-1.05.02-1.59.02-12.59,0-24.27-4.71-32.89-13.25-8.19-8.12-12.88-19.13-12.88-30.22s3.02-22.61,6.22-35.35c3.41-13.6,6.94-27.66,6.94-41.08,0-15.27-7.2-24.21-13.24-29.01-6.57-5.23-15.47-8.36-23.8-8.36s-19.05,3.16-26.94,11.45c-.32.33-.18.88.25,1.05,4.08,1.57,7.86,3.64,11.45,6.27.23.17.55.16.78-.01,4.43-3.4,9.84-4.99,14.46-4.99,4.11,0,10.26,1.41,15.22,5.36,5.34,4.25,8.05,10.39,8.05,18.24,0,11.72-3.32,24.94-6.53,37.72-3.26,12.99-6.63,26.42-6.63,38.7,0,14.74,6.18,29.32,16.96,40,11.22,11.12,26.34,17.24,42.58,17.24,23.36,0,37.14-10.74,44.59-19.75,8.55-10.35,13.46-24.01,13.46-37.49,0-15.15-5.42-29.28-15.25-39.79Z"/><path class="d" d="m125.76,399.76h-13.03c-.97,0-1.83-.43-2.37-1.29l-13.89-20.36h-13.03v19.71c0,1.18-.75,1.94-1.94,1.94h-10.88c-1.29,0-2.05-.75-2.05-1.94v-71.83c0-1.18.75-1.94,2.05-1.94h24.99c18.42,0,30.69,10.45,30.69,27.35,0,10.77-5.49,18.95-14.86,23.37l15.72,22.62c.86,1.4.21,2.37-1.4,2.37Zm-42.32-34.68h10.88c10.02,0,16.58-5.38,16.58-13.68,0-9.05-6.68-14.32-16.48-14.32h-10.98v28Z"/><path class="d" d="m196.45,388.67v9.15c0,1.18-.75,1.94-1.94,1.94h-48.25c-1.29,0-2.05-.75-2.05-1.94v-71.83c0-1.18.75-1.94,2.05-1.94h47.82c1.29,0,2.05.75,2.05,1.94v9.15c0,1.29-.75,2.05-2.05,2.05h-35v17.77h30.59c1.29,0,2.05.75,2.05,2.05v9.15c0,1.18-.75,1.94-2.05,1.94h-30.59v18.63h35.43c1.18,0,1.94.65,1.94,1.94Z"/><path class="d" d="m283.9,361.85c0,22.72-15.83,37.91-39.74,37.91h-27.14c-1.29,0-2.05-.75-2.05-1.94v-71.83c0-1.18.75-1.94,2.05-1.94h27.14c23.91,0,39.74,15.08,39.74,37.8Zm-15.08.22c0-14.97-9.48-24.88-25.31-24.88h-13.68v49.43h13.68c15.83,0,25.31-9.8,25.31-24.55Z"/><path class="d" d="m379.05,388.67v9.15c0,1.18-.75,1.94-2.05,1.94h-47.39c-1.29,0-2.05-.75-2.05-1.94v-71.83c0-1.18.75-1.94,2.05-1.94h10.88c1.18,0,1.94.75,1.94,1.94v60.74h34.57c1.29,0,2.05.65,2.05,1.94Z"/><path class="d" d="m444.19,388.67v9.15c0,1.18-.75,1.94-1.94,1.94h-48.25c-1.29,0-2.05-.75-2.05-1.94v-71.83c0-1.18.75-1.94,2.05-1.94h47.82c1.29,0,2.05.75,2.05,1.94v9.15c0,1.29-.75,2.05-2.05,2.05h-35v17.77h30.59c1.29,0,2.05.75,2.05,2.05v9.15c0,1.18-.75,1.94-2.05,1.94h-30.59v18.63h35.43c1.18,0,1.94.65,1.94,1.94Z"/><path class="d" d="m454.31,362.07c0-21.97,16.91-38.99,40.06-38.99s39.63,16.59,39.63,38.99-16.69,38.66-39.63,38.66-40.06-16.8-40.06-38.66Zm64.51,0c0-14.43-10.45-25.2-24.45-25.2s-24.88,10.88-24.88,25.2,10.55,24.99,24.88,24.99,24.45-10.66,24.45-24.99Z"/><path class="d" d="m617.04,325.99v72.69c0,1.29-.75,1.94-2.05,1.94h-4.85c-1.08,0-1.83-.32-2.48-1.08l-44.16-49.54v47.82c0,1.18-.75,1.94-2.05,1.94h-10.55c-1.18,0-1.94-.75-1.94-1.94v-72.59c0-1.18.75-1.94,1.94-1.94h4.95c1.08,0,1.83.43,2.48,1.08l44.05,49.43v-47.82c0-1.18.75-1.94,1.94-1.94h10.66c1.29,0,2.05.75,2.05,1.94Z"/><path class="d" d="m702.42,399.76h-11.52c-1.08,0-1.83-.54-2.26-1.62l-5.38-13.03h-32.42l-5.38,13.03c-.43,1.08-1.18,1.62-2.26,1.62h-11.52c-1.51,0-2.15-.86-1.62-2.26l31.55-71.94c.32-.97,1.29-1.51,2.37-1.51h6.46c1.08,0,1.94.54,2.37,1.51l31.23,71.94c.54,1.4-.11,2.26-1.62,2.26Zm-46.85-27.25h22.94l-11.42-27.35-11.52,27.35Z"/><path class="d" d="m774.27,399.76h-13.03c-.97,0-1.83-.43-2.37-1.29l-13.89-20.36h-13.03v19.71c0,1.18-.75,1.94-1.94,1.94h-10.88c-1.29,0-2.05-.75-2.05-1.94v-71.83c0-1.18.75-1.94,2.05-1.94h24.99c18.42,0,30.69,10.45,30.69,27.35,0,10.77-5.49,18.95-14.86,23.37l15.72,22.62c.86,1.4.21,2.37-1.4,2.37Zm-42.32-34.68h10.88c10.02,0,16.58-5.38,16.58-13.68,0-9.05-6.68-14.32-16.48-14.32h-10.98v28Z"/><path class="d" d="m861.65,361.85c0,22.72-15.83,37.91-39.74,37.91h-27.14c-1.29,0-2.05-.75-2.05-1.94v-71.83c0-1.18.75-1.94,2.05-1.94h27.14c23.91,0,39.74,15.08,39.74,37.8Zm-15.08.22c0-14.97-9.48-24.88-25.31-24.88h-13.68v49.43h13.68c15.83,0,25.31-9.8,25.31-24.55Z"/><path class="d" d="m872.2,362.07c0-21.97,16.91-38.99,40.06-38.99s39.63,16.59,39.63,38.99-16.69,38.66-39.63,38.66-40.06-16.8-40.06-38.66Zm64.51,0c0-14.43-10.45-25.2-24.45-25.2s-24.88,10.88-24.88,25.2,10.55,24.99,24.88,24.99,24.45-10.66,24.45-24.99Z"/><path class="d" d="m91.16,465.18c0,5.1-3.39,8.2-10.9,8.2h-10.69c-.45,0-.73-.29-.73-.73v-27.23c0-.45.29-.73.73-.73h10c7.51,0,10.57,3.18,10.57,7.43,0,3.06-1.71,5.27-4.2,6.25,3.35.94,5.22,3.63,5.22,6.82Zm-11.67-15.8h-5.14v7.27h5.55c3.22,0,4.78-1.31,4.78-3.55s-1.51-3.71-5.18-3.71Zm6.12,15.43c0-2.16-1.63-3.67-5.39-3.67h-5.88v7.55h5.88c3.59,0,5.39-1.47,5.39-3.88Z"/><path class="d" d="m120.12,469.18v3.47c0,.45-.29.73-.73.73h-18.29c-.49,0-.78-.29-.78-.73v-27.23c0-.45.29-.73.78-.73h18.12c.49,0,.78.29.78.73v3.47c0,.49-.29.78-.78.78h-13.27v6.73h11.59c.49,0,.78.29.78.78v3.47c0,.45-.29.74-.78.74h-11.59v7.06h13.43c.45,0,.73.24.73.73Z"/><path class="d" d="m127.21,459.06c0-8.33,6.08-14.73,15.27-14.73,4.41,0,7.35,1.39,8.9,2.37.41.25.45.65.25,1.06l-1.75,3.14c-.25.45-.61.53-1.02.25-1.1-.61-3.1-1.55-6.04-1.55-5.92,0-9.8,3.71-9.8,9.43s3.84,9.47,9.8,9.47c2.94,0,4.94-.9,6.04-1.51.41-.25.78-.16,1.02.25l1.75,3.14c.2.41.2.78-.33,1.1-1.22.82-4.16,2.29-8.82,2.29-9.22,0-15.27-6.41-15.27-14.69Z"/><path class="d" d="m185.16,473.38h-4.37c-.41,0-.69-.2-.86-.61l-2.04-4.94h-12.29l-2.04,4.94c-.16.41-.45.61-.86.61h-4.37c-.57,0-.82-.33-.61-.86l11.96-27.27c.12-.37.49-.57.9-.57h2.45c.41,0,.73.2.9.57l11.84,27.27c.2.53-.04.86-.61.86Zm-17.75-10.33h8.69l-4.33-10.37-4.37,10.37Z"/><path class="d" d="m192.08,470.77c-.37-.29-.45-.73-.2-1.18l1.96-3.1c.2-.41.61-.49,1.02-.2,2.41,1.76,5.06,2.57,7.84,2.57,2.57,0,4.49-1.1,4.49-3.43s-1.63-3.31-5.92-4.49c-4.86-1.35-8.65-3.22-8.65-8.25s4.16-8.37,10.33-8.37c3.84,0,6.86.98,9.02,2.49.41.29.41.69.16,1.06l-1.75,2.9c-.25.45-.69.53-1.1.24-1.8-1.14-3.8-1.8-6.37-1.8s-4.57.98-4.57,3.1,1.88,2.73,5.84,3.92c4.86,1.43,8.61,3.31,8.61,8.82s-4.04,8.69-10.16,8.69c-4.45,0-7.88-1.1-10.53-2.98Z"/><path class="d" d="m259.08,459.02c0,8.61-6,14.37-15.06,14.37h-10.29c-.49,0-.78-.29-.78-.73v-27.23c0-.45.29-.73.78-.73h10.29c9.06,0,15.06,5.71,15.06,14.33Zm-5.71.08c0-5.67-3.59-9.43-9.59-9.43h-5.18v18.74h5.18c6,0,9.59-3.71,9.59-9.31Z"/><path class="d" d="m287.44,469.18v3.47c0,.45-.29.73-.73.73h-18.29c-.49,0-.78-.29-.78-.73v-27.23c0-.45.29-.73.78-.73h18.12c.49,0,.78.29.78.73v3.47c0,.49-.29.78-.78.78h-13.27v6.73h11.59c.49,0,.78.29.78.78v3.47c0,.45-.29.74-.78.74h-11.59v7.06h13.43c.45,0,.73.24.73.73Z"/><path class="d" d="m306.52,472.65v-27.23c0-.45.29-.73.78-.73h4.12c.45,0,.74.29.74.73v27.23c0,.45-.29.73-.74.73h-4.12c-.49,0-.78-.29-.78-.73Z"/><path class="d" d="m348.51,445.42v27.55c0,.49-.29.73-.78.73h-1.84c-.41,0-.69-.12-.94-.41l-16.74-18.78v18.12c0,.45-.29.73-.78.73h-4c-.45,0-.73-.29-.73-.73v-27.51c0-.45.29-.74.73-.74h1.88c.41,0,.69.16.94.41l16.69,18.74v-18.12c0-.45.29-.73.73-.73h4.04c.49,0,.78.29.78.73Z"/><path class="d" d="m382.76,445.55l-11.35,27.27c-.12.41-.45.57-.86.57h-2.33c-.41,0-.73-.16-.86-.57l-11.39-27.27c-.2-.53.04-.86.57-.86h4.73c.41,0,.73.2.86.61l5.59,14.57,1.84,5.8,1.8-5.8,5.43-14.57c.12-.41.45-.61.86-.61h4.53c.57,0,.78.33.57.86Z"/><path class="d" d="m410.02,469.18v3.47c0,.45-.29.73-.73.73h-18.29c-.49,0-.78-.29-.78-.73v-27.23c0-.45.29-.73.78-.73h18.12c.49,0,.78.29.78.73v3.47c0,.49-.29.78-.78.78h-13.27v6.73h11.59c.49,0,.78.29.78.78v3.47c0,.45-.29.74-.78.74h-11.59v7.06h13.43c.45,0,.73.24.73.73Z"/><path class="d" d="m417.57,470.77c-.37-.29-.45-.73-.2-1.18l1.96-3.1c.2-.41.61-.49,1.02-.2,2.41,1.76,5.06,2.57,7.84,2.57,2.57,0,4.49-1.1,4.49-3.43s-1.63-3.31-5.92-4.49c-4.86-1.35-8.65-3.22-8.65-8.25s4.16-8.37,10.33-8.37c3.84,0,6.86.98,9.02,2.49.41.29.41.69.16,1.06l-1.75,2.9c-.25.45-.69.53-1.1.24-1.8-1.14-3.8-1.8-6.37-1.8s-4.57.98-4.57,3.1,1.88,2.73,5.84,3.92c4.86,1.43,8.61,3.31,8.61,8.82s-4.04,8.69-10.16,8.69c-4.45,0-7.88-1.1-10.53-2.98Z"/><path class="d" d="m469.26,445.42v3.47c0,.49-.29.78-.78.78h-8.74v22.98c0,.45-.29.73-.78.73h-4.12c-.49,0-.74-.29-.74-.73v-22.98h-8.82c-.49,0-.73-.29-.73-.78v-3.47c0-.45.25-.73.73-.73h23.18c.49,0,.78.29.78.73Z"/><path class="d" d="m476.61,472.65v-27.23c0-.45.29-.73.78-.73h4.12c.45,0,.74.29.74.73v27.23c0,.45-.29.73-.74.73h-4.12c-.49,0-.78-.29-.78-.73Z"/><path class="d" d="m517.3,459.83v9.96c0,.41-.12.73-.45.94-1.39,1.02-4.69,3.02-10.49,3.02-8.94,0-15.35-6.41-15.35-14.69s6.41-14.73,15.47-14.73c4.9,0,7.84,1.47,9.23,2.37.41.25.49.61.24,1.02l-1.71,3.14c-.25.41-.61.49-1.02.29-1.14-.61-3.35-1.55-6.49-1.55-5.67,0-9.88,3.76-9.88,9.47s4.41,9.63,9.84,9.63c2.16,0,3.96-.45,5.31-1.1v-7.76c0-.49.29-.73.78-.73h3.76c.49,0,.78.25.78.73Z"/><path class="d" d="m550.97,473.38h-4.37c-.41,0-.69-.2-.86-.61l-2.04-4.94h-12.29l-2.04,4.94c-.16.41-.45.61-.86.61h-4.37c-.57,0-.82-.33-.61-.86l11.96-27.27c.12-.37.49-.57.9-.57h2.45c.41,0,.73.2.9.57l11.84,27.27c.2.53-.04.86-.61.86Zm-17.75-10.33h8.69l-4.33-10.37-4.37,10.37Z"/><path class="d" d="m555.94,459.06c0-8.33,6.08-14.73,15.27-14.73,4.41,0,7.35,1.39,8.9,2.37.41.25.45.65.25,1.06l-1.75,3.14c-.25.45-.61.53-1.02.25-1.1-.61-3.1-1.55-6.04-1.55-5.92,0-9.8,3.71-9.8,9.43s3.84,9.47,9.8,9.47c2.94,0,4.94-.9,6.04-1.51.41-.25.78-.16,1.02.25l1.75,3.14c.2.41.2.78-.33,1.1-1.22.82-4.16,2.29-8.82,2.29-9.22,0-15.27-6.41-15.27-14.69Z"/><path class="d" d="m588.57,472.65v-27.23c0-.45.29-.73.78-.73h4.12c.45,0,.74.29.74.73v27.23c0,.45-.29.73-.74.73h-4.12c-.49,0-.78-.29-.78-.73Z"/><path class="d" d="m602.97,459.1c0-8.33,6.41-14.78,15.18-14.78s15.02,6.29,15.02,14.78-6.33,14.65-15.02,14.65-15.18-6.37-15.18-14.65Zm24.45,0c0-5.47-3.96-9.55-9.27-9.55s-9.43,4.12-9.43,9.55,4,9.47,9.43,9.47,9.27-4.04,9.27-9.47Zm-13.88-17.14l-.73-1.92c-.16-.45-.04-.78.37-.98l8.08-3.8c.45-.2.78-.08.98.37l1.26,3.39c.2.49.04.86-.45.98l-8.57,2.45c-.49.16-.82-.04-.94-.49Z"/><path class="d" d="m667.86,445.42v27.55c0,.49-.29.73-.78.73h-1.84c-.41,0-.69-.12-.94-.41l-16.74-18.78v18.12c0,.45-.29.73-.78.73h-4c-.45,0-.73-.29-.73-.73v-27.51c0-.45.29-.74.73-.74h1.88c.41,0,.69.16.94.41l16.69,18.74v-18.12c0-.45.29-.73.73-.73h4.04c.49,0,.78.29.78.73Z"/><path class="d" d="m688,459.06c0-8.33,6.08-14.73,15.27-14.73,4.41,0,7.35,1.39,8.9,2.37.41.25.45.65.25,1.06l-1.75,3.14c-.25.45-.61.53-1.02.25-1.1-.61-3.1-1.55-6.04-1.55-5.92,0-9.8,3.71-9.8,9.43s3.84,9.47,9.8,9.47c2.94,0,4.94-.9,6.04-1.51.41-.25.78-.16,1.02.25l1.75,3.14c.2.41.2.78-.33,1.1-1.22.82-4.16,2.29-8.82,2.29-9.22,0-15.27-6.41-15.27-14.69Z"/><path class="d" d="m720.63,472.65v-27.23c0-.45.29-.73.78-.73h4.12c.45,0,.74.29.74.73v27.23c0,.45-.29.73-.74.73h-4.12c-.49,0-.78-.29-.78-.73Z"/><path class="d" d="m756.6,469.18v3.47c0,.45-.29.73-.73.73h-18.29c-.49,0-.78-.29-.78-.73v-27.23c0-.45.29-.73.78-.73h18.12c.49,0,.78.29.78.73v3.47c0,.49-.29.78-.78.78h-13.27v6.73h11.59c.49,0,.78.29.78.78v3.47c0,.45-.29.74-.78.74h-11.59v7.06h13.43c.45,0,.73.24.73.73Z"/><path class="d" d="m791.84,445.42v27.55c0,.49-.29.73-.78.73h-1.84c-.41,0-.69-.12-.94-.41l-16.74-18.78v18.12c0,.45-.29.73-.78.73h-4c-.45,0-.73-.29-.73-.73v-27.51c0-.45.29-.74.73-.74h1.88c.41,0,.69.16.94.41l16.69,18.74v-18.12c0-.45.29-.73.73-.73h4.04c.49,0,.78.29.78.73Z"/><path class="d" d="m823.92,445.42v3.47c0,.49-.29.78-.78.78h-8.74v22.98c0,.45-.29.73-.78.73h-4.12c-.49,0-.74-.29-.74-.73v-22.98h-8.82c-.49,0-.73-.29-.73-.78v-3.47c0-.45.25-.73.73-.73h23.18c.49,0,.78.29.78.73Z"/><path class="d" d="m829.56,441.95l-.73-1.92c-.16-.45-.04-.78.37-.98l8.08-3.8c.45-.2.78-.08.98.37l1.27,3.39c.2.49.04.86-.45.98l-8.57,2.45c-.49.16-.82-.04-.94-.49Zm1.71,30.7v-27.23c0-.45.29-.73.78-.73h4.12c.45,0,.74.29.74.73v27.23c0,.45-.29.73-.74.73h-4.12c-.49,0-.78-.29-.78-.73Z"/><path class="d" d="m866.97,445.42v3.47c0,.49-.25.78-.74.78h-13.1v8.94h11.31c.45,0,.74.29.74.78v3.47c0,.49-.29.74-.74.74h-11.31v9.06c0,.45-.29.73-.74.73h-4.12c-.49,0-.78-.29-.78-.73v-27.23c0-.45.29-.73.78-.73h17.96c.49,0,.74.29.74.73Z"/><path class="d" d="m875.19,472.65v-27.23c0-.45.29-.73.78-.73h4.12c.45,0,.74.29.74.73v27.23c0,.45-.29.73-.74.73h-4.12c-.49,0-.78-.29-.78-.73Z"/><path class="d" d="m889.7,459.06c0-8.33,6.08-14.73,15.27-14.73,4.41,0,7.35,1.39,8.9,2.37.41.25.45.65.25,1.06l-1.75,3.14c-.25.45-.61.53-1.02.25-1.1-.61-3.1-1.55-6.04-1.55-5.92,0-9.8,3.71-9.8,9.43s3.84,9.47,9.8,9.47c2.94,0,4.94-.9,6.04-1.51.41-.25.78-.16,1.02.25l1.75,3.14c.2.41.2.78-.33,1.1-1.22.82-4.16,2.29-8.82,2.29-9.22,0-15.27-6.41-15.27-14.69Z"/><path class="d" d="m947.65,473.38h-4.37c-.41,0-.69-.2-.86-.61l-2.04-4.94h-12.29l-2.04,4.94c-.16.41-.45.61-.86.61h-4.37c-.57,0-.82-.33-.61-.86l11.96-27.27c.12-.37.49-.57.9-.57h2.45c.41,0,.73.2.9.57l11.84,27.27c.2.53-.04.86-.61.86Zm-17.75-10.33h8.69l-4.33-10.37-4.37,10.37Z"/><path class="d" d="m92.02,496.48l-10.12,16.61v10.45c0,.45-.25.73-.74.73h-4.16c-.49,0-.73-.29-.73-.73v-10.45l-10-16.61c-.29-.49-.08-.9.53-.9h5.06c.45,0,.73.16.94.53l6.53,11.43,6.53-11.43c.2-.37.49-.53.9-.53h4.74c.61,0,.82.41.53.9Z"/><path class="d" d="m105.89,509.95c0-8.33,6.08-14.73,15.27-14.73,4.41,0,7.35,1.39,8.9,2.37.41.25.45.65.25,1.06l-1.75,3.14c-.25.45-.61.53-1.02.25-1.1-.61-3.1-1.55-6.04-1.55-5.92,0-9.8,3.71-9.8,9.43s3.84,9.47,9.8,9.47c2.94,0,4.94-.9,6.04-1.51.41-.25.78-.16,1.02.25l1.75,3.14c.2.41.2.78-.33,1.1-1.22.82-4.16,2.29-8.82,2.29-9.22,0-15.27-6.41-15.27-14.69Z"/><path class="d" d="m160.19,524.27h-4.94c-.37,0-.69-.16-.9-.49l-5.27-7.71h-4.94v7.47c0,.45-.29.73-.74.73h-4.12c-.49,0-.78-.29-.78-.73v-27.23c0-.45.29-.73.78-.73h9.47c6.98,0,11.63,3.96,11.63,10.37,0,4.08-2.08,7.18-5.63,8.86l5.96,8.57c.33.53.08.9-.53.9Zm-16.04-13.14h4.12c3.8,0,6.29-2.04,6.29-5.18,0-3.43-2.53-5.43-6.25-5.43h-4.16v10.61Z"/><path class="d" d="m189.39,520.07v3.47c0,.45-.29.73-.73.73h-18.29c-.49,0-.78-.29-.78-.73v-27.23c0-.45.29-.73.78-.73h18.12c.49,0,.78.29.78.73v3.47c0,.49-.29.78-.78.78h-13.27v6.73h11.59c.49,0,.78.29.78.78v3.47c0,.45-.29.74-.78.74h-11.59v7.06h13.43c.45,0,.73.24.73.73Z"/><path class="d" d="m223.49,524.27h-4.37c-.41,0-.69-.2-.86-.61l-2.04-4.94h-12.29l-2.04,4.94c-.16.41-.45.61-.86.61h-4.37c-.57,0-.82-.33-.61-.86l11.96-27.27c.12-.37.49-.57.9-.57h2.45c.41,0,.73.2.9.57l11.84,27.27c.2.53-.04.86-.61.86Zm-17.75-10.33h8.69l-4.33-10.37-4.37,10.37Z"/><path class="d" d="m228.46,509.95c0-8.33,6.08-14.73,15.27-14.73,4.41,0,7.35,1.39,8.9,2.37.41.25.45.65.25,1.06l-1.75,3.14c-.25.45-.61.53-1.02.25-1.1-.61-3.1-1.55-6.04-1.55-5.92,0-9.8,3.71-9.8,9.43s3.84,9.47,9.8,9.47c2.94,0,4.94-.9,6.04-1.51.41-.25.78-.16,1.02.25l1.75,3.14c.2.41.2.78-.33,1.1-1.22.82-4.16,2.29-8.82,2.29-9.22,0-15.27-6.41-15.27-14.69Z"/><path class="d" d="m261.08,523.54v-27.23c0-.45.29-.73.78-.73h4.12c.45,0,.74.29.74.73v27.23c0,.45-.29.73-.74.73h-4.12c-.49,0-.78-.29-.78-.73Z"/><path class="d" d="m275.49,509.99c0-8.33,6.41-14.78,15.18-14.78s15.02,6.29,15.02,14.78-6.33,14.65-15.02,14.65-15.18-6.37-15.18-14.65Zm24.45,0c0-5.47-3.96-9.55-9.27-9.55s-9.43,4.12-9.43,9.55,4,9.47,9.43,9.47,9.27-4.04,9.27-9.47Zm-13.88-17.14l-.73-1.92c-.16-.45-.04-.78.37-.98l8.08-3.8c.45-.2.78-.08.98.37l1.26,3.39c.2.49.04.86-.45.98l-8.57,2.45c-.49.16-.82-.04-.94-.49Z"/><path class="d" d="m340.38,496.31v27.55c0,.49-.29.73-.78.73h-1.84c-.41,0-.69-.12-.94-.41l-16.74-18.78v18.12c0,.45-.29.73-.78.73h-4c-.45,0-.73-.29-.73-.73v-27.51c0-.45.29-.74.73-.74h1.88c.41,0,.69.16.94.41l16.69,18.74v-18.12c0-.45.29-.73.73-.73h4.04c.49,0,.78.29.78.73Z"/><path class="d" d="m356.86,509.95c0-8.33,6.08-14.73,15.27-14.73,4.41,0,7.35,1.39,8.9,2.37.41.25.45.65.25,1.06l-1.75,3.14c-.25.45-.61.53-1.02.25-1.1-.61-3.1-1.55-6.04-1.55-5.92,0-9.8,3.71-9.8,9.43s3.84,9.47,9.8,9.47c2.94,0,4.94-.9,6.04-1.51.41-.25.78-.16,1.02.25l1.75,3.14c.2.41.2.78-.33,1.1-1.22.82-4.16,2.29-8.82,2.29-9.22,0-15.27-6.41-15.27-14.69Z"/><path class="d" d="m388.92,511.95v-15.63c0-.45.24-.73.73-.73h4.16c.49,0,.74.29.74.73v16.08c0,3.88,2.29,7.14,7.02,7.14s6.98-3.27,6.98-7.14v-16.08c0-.45.25-.73.73-.73h4.12c.45,0,.73.29.73.73v15.63c0,8.29-5.02,12.69-12.61,12.69s-12.61-4.41-12.61-12.69Z"/><path class="d" d="m443.98,520.07v3.47c0,.45-.29.73-.78.73h-17.96c-.49,0-.78-.29-.78-.73v-27.23c0-.45.29-.73.78-.73h4.12c.45,0,.74.29.74.73v23.02h13.1c.49,0,.78.24.78.73Z"/><path class="d" d="m469.52,496.31v3.47c0,.49-.29.78-.78.78h-8.74v22.98c0,.45-.29.73-.78.73h-4.12c-.49,0-.74-.29-.74-.73v-22.98h-8.82c-.49,0-.73-.29-.73-.78v-3.47c0-.45.25-.73.73-.73h23.18c.49,0,.78.29.78.73Z"/><path class="d" d="m476.7,511.95v-15.63c0-.45.24-.73.73-.73h4.16c.49,0,.74.29.74.73v16.08c0,3.88,2.29,7.14,7.02,7.14s6.98-3.27,6.98-7.14v-16.08c0-.45.25-.73.73-.73h4.12c.45,0,.73.29.73.73v15.63c0,8.29-5.02,12.69-12.61,12.69s-12.61-4.41-12.61-12.69Z"/><path class="d" d="m533.92,524.27h-4.94c-.37,0-.69-.16-.9-.49l-5.27-7.71h-4.94v7.47c0,.45-.29.73-.74.73h-4.12c-.49,0-.78-.29-.78-.73v-27.23c0-.45.29-.73.78-.73h9.47c6.98,0,11.63,3.96,11.63,10.37,0,4.08-2.08,7.18-5.63,8.86l5.96,8.57c.33.53.08.9-.53.9Zm-16.04-13.14h4.12c3.8,0,6.29-2.04,6.29-5.18,0-3.43-2.53-5.43-6.25-5.43h-4.16v10.61Z"/><path class="d" d="m568.41,524.27h-4.37c-.41,0-.69-.2-.86-.61l-2.04-4.94h-12.29l-2.04,4.94c-.16.41-.45.61-.86.61h-4.37c-.57,0-.82-.33-.61-.86l11.96-27.27c.12-.37.49-.57.9-.57h2.45c.41,0,.73.2.9.57l11.84,27.27c.2.53-.04.86-.61.86Zm-17.75-10.33h8.69l-4.33-10.37-4.37,10.37Z"/><path class="d" d="m595.88,520.07v3.47c0,.45-.29.73-.78.73h-17.96c-.49,0-.78-.29-.78-.73v-27.23c0-.45.29-.73.78-.73h4.12c.45,0,.74.29.74.73v23.02h13.1c.49,0,.78.24.78.73Z"/></g></svg>